#!OML:ASF I:\Actors\actors\Patient Classification 1\Patient 1\Session 1\Subject1.ASF
:FULLY-SPECIFIED
:DEGREES
569
root 0.678895 17.5271 9.13974 5.23781 -6.86607 -8.16582
lowerback -1.94646 0.699276 5.94259
upperback -8.77913 1.27454 2.98304
thorax -8.09581 0.322154 -0.23202
lowerneck -10.696 -2.58756 -0.270694
upperneck 18.9132 -4.75407 5.86913
head 7.74834 -1.75197 1.50417
rclavicle -7.90169e-015 3.89618e-014
rhumerus 12.2718 51.3787 -71.9555
rradius 59.0067
rwrist 36.4276
rhand -26.3039 -55.2827
rfingers 7.12502
rthumb 0.252212 -85.2623
lclavicle -7.90169e-015 3.89618e-014
lhumerus -1.18799 -43.8487 77.9189
lradius 61.7396
lwrist -23.9493
lhand -54.0582 -38.6791
lfingers 7.12502
lthumb -26.479 -10.5091
rfemur -5.49307 21.0303 25.2124
rtibia 10.9337
rfoot -12.5151 -15.013
rtoes -4.73167
lfemur 5.57312 -27.4267 -12.9998
ltibia 0.123874
lfoot -14.3079 40.4894
ltoes 1.45038
570
root 0.697696 17.5258 9.09623 5.20615 -6.81315 -8.05439
lowerback -1.4055 0.697306 6.05442
upperback -8.81255 1.32537 2.96749
thorax -8.44682 0.330048 -0.317433
lowerneck -10.8748 -2.63405 -0.357216
upperneck 18.6225 -4.79255 5.90937
head 7.689 -1.776 1.52505
rclavicle -8.49804e-015 -2.38542e-014
rhumerus 15.5454 49.0478 -71.3751
rradius 56.755
rwrist 38.3202
rhand -27.527 -56.3496
rfingers 7.12502
rthumb -0.929105 -86.3273
lclavicle -8.49804e-015 -2.38542e-014
lhumerus 3.50895 -42.539 75.5831
lradius 59.8538
lwrist -24.3214
lhand -53.1938 -37.7935
lfingers 7.12502
lthumb -25.6514 -9.50153
rfemur -5.98065 20.8941 24.9505
rtibia 11.5215
rfoot -12.614 -14.9378
rtoes -4.80007
lfemur 4.65479 -26.1308 -12.6372
ltibia 0.934273
lfoot -13.9716 39.1834
ltoes 0.632513
571
root 0.714253 17.5272 9.048 5.1854 -6.78056 -7.97959
lowerback -0.692344 0.700092 6.11752
upperback -8.89702 1.40466 3.00369
thorax -8.9587 0.353005 -0.324409
lowerneck -10.8678 -2.6946 -0.511259
upperneck 18.1958 -4.82073 5.9267
head 7.55199 -1.8088 1.55255
rclavicle -8.89561e-015 4.27387e-014
rhumerus 17.9877 45.2194 -72.1095
rradius 53.9729
rwrist 39.6853
rhand -29.8058 -52.0495
rfingers 7.12502
rthumb -3.12995 -82.0062
lclavicle -8.89561e-015 4.27387e-014
lhumerus 7.69503 -40.7971 74.0086
lradius 57.6993
lwrist -24.4824
lhand -53.6033 -40.4588
lfingers 7.12502
lthumb -26.0435 -12.224
rfemur -6.47259 20.8402 24.7279
rtibia 12.0895
rfoot -12.743 -14.8892
rtoes -4.35244
lfemur 3.86793 -24.9847 -12.2932
ltibia 1.5565
lfoot -13.4158 38.0652
ltoes -0.650922
572
root 0.734007 17.5296 8.99726 5.24281 -6.60022 -7.94017
lowerback -0.186006 0.705339 6.20494
upperback -8.86286 1.46782 3.08967
thorax -9.22013 0.375944 -0.291225
lowerneck -11.0521 -2.74602 -0.705526
upperneck 17.9125 -4.84719 5.97926
head 7.49869 -1.83238 1.59653
rclavicle 5.01931e-015 -1.09332e-014
rhumerus 21.1891 44.4841 -71.0718
rradius 51.7149
rwrist 42.6219
rhand -28.6505 -57.4705
rfingers 7.12502
rthumb -2.01414 -87.4408
lclavicle 5.01931e-015 -1.09332e-014
lhumerus 11.8235 -38.8201 72.9561
lradius 55.1866
lwrist -24.7412
lhand -54.1717 -42.9973
lfingers 7.12502
lthumb -26.5876 -14.8437
rfemur -6.9742 20.8261 24.513
rtibia 12.5052
rfoot -12.8043 -15.0179
rtoes -3.93226
lfemur 3.00627 -24.0457 -11.9268
ltibia 2.14731
lfoot -12.8537 37.0376
ltoes -1.79431
573
root 0.755387 17.533 8.9462 5.38705 -6.26635 -7.97624
lowerback 0.912024 0.696895 6.76001
upperback -9.16595 1.60082 2.91893
thorax -10.2042 0.358453 -0.79822
lowerneck -11.5239 -2.78507 -0.533932
upperneck 18.0774 -4.944 5.9457
head 7.63671 -1.85631 1.54191
rclavicle 9.59136e-015 -2.3059e-014
rhumerus 23.2128 42.0628 -71.8612
rradius 49.0302
rwrist 43.4509
rhand -29.0601 -58.0985
rfingers 7.12502
rthumb -2.4098 -88.0646
lclavicle 9.59136e-015 -2.3059e-014
lhumerus 15.3526 -37.3713 72.1268
lradius 52.3527
lwrist -25.2533
lhand -54.6576 -43.7908
lfingers 7.12502
lthumb -27.0526 -15.7085
rfemur -7.51218 20.7495 24.3523
rtibia 12.822
rfoot -12.821 -15.249
rtoes -3.94865
lfemur 2.04699 -23.3066 -11.4673
ltibia 2.72626
lfoot -12.459 36.0694
ltoes -2.47748
574
root 0.774124 17.5377 8.8943 5.55284 -5.90042 -8.03638
lowerback 1.37724 0.646289 6.95301
upperback -8.98958 1.58999 3.014
thorax -10.2875 0.342908 -0.809415
lowerneck -12.0168 -2.78451 -0.459415
upperneck 17.5937 -4.89329 5.76667
head 7.55765 -1.84483 1.46936
rclavicle 1.09332e-015 -5.1684e-015
rhumerus 26.3028 39.9827 -71.538
rradius 46.4262
rwrist 43.7729
rhand -28.7707 -58.0774
rfingers 7.12502
rthumb -2.13024 -88.0465
lclavicle 1.09332e-015 -5.1684e-015
lhumerus 19.455 -35.4582 71.3581
lradius 49.1507
lwrist -25.9626
lhand -54.7907 -43.7331
lfingers 7.12502
lthumb -27.18 -15.6707
rfemur -8.03681 20.6652 24.2174
rtibia 13.0807
rfoot -12.8272 -15.4854
rtoes -3.89738
lfemur 1.10409 -22.7281 -11.003
ltibia 3.24815
lfoot -11.9884 35.2144
ltoes -3.29798
575
root 0.793135 17.5407 8.83973 5.70886 -5.51449 -8.10978
lowerback 1.85962 0.568972 7.16161
upperback -8.72351 1.54308 3.12641
thorax -10.2826 0.313432 -0.808108
lowerneck -12.437 -2.7461 -0.436781
upperneck 16.9096 -4.79053 5.70641
head 7.40289 -1.8072 1.45084
rclavicle 1.87355e-014 -7.15625e-015
rhumerus 29.0625 37.7862 -71.5854
rradius 43.9863
rwrist 44.2238
rhand -28.469 -57.3354
rfingers 7.12502
rthumb -1.83884 -87.3072
lclavicle 1.87355e-014 -7.15625e-015
lhumerus 23.2878 -33.4366 70.9464
lradius 45.8628
lwrist -26.7169
lhand -54.5358 -42.9616
lfingers 7.12502
lthumb -26.9361 -14.8614
rfemur -8.52423 20.5592 24.0936
rtibia 13.2706
rfoot -12.7689 -15.7053
rtoes -3.75533
lfemur 0.216269 -22.3263 -10.5743
ltibia 3.70516
lfoot -11.521 34.4827
ltoes -4.11717
576
root 0.813021 17.5436 8.78355 5.83491 -5.15463 -8.10729
lowerback 2.44543 0.502706 7.33335
upperback -8.48694 1.51814 3.18022
thorax -10.3709 0.29172 -0.851479
lowerneck -12.6839 -2.72231 -0.335185
upperneck 16.224 -4.73022 5.6819
head 7.21843 -1.78519 1.42906
rclavicle 4.02539e-015 -4.57205e-014
rhumerus 31.1044 35.3373 -72.3958
rradius 41.6982
rwrist 45.2185
rhand -28.3528 -56.4365
rfingers 7.12502
rthumb -1.72664 -86.4092
lclavicle 4.02539e-015 -4.57205e-014
lhumerus 26.5598 -31.4919 71.0122
lradius 42.6752
lwrist -27.7671
lhand -54.4027 -42.9668
lfingers 7.12502
lthumb -26.8087 -14.8469
rfemur -8.94576 20.4895 23.8911
rtibia 13.39
rfoot -12.6815 -15.9306
rtoes -3.63846
lfemur -0.555326 -22.0788 -10.3052
ltibia 4.05824
lfoot -11.2736 33.9043
ltoes -4.38979
577
root 0.830568 17.5486 8.73018 6.01255 -4.8584 -7.9884
lowerback 2.04398 0.501869 6.90537
upperback -7.70208 1.41487 3.50366
thorax -9.26311 0.333736 -0.269645
lowerneck -12.8839 -2.72544 -0.337118
upperneck 14.993 -4.61523 5.45992
head 6.84518 -1.77411 1.36714
rclavicle -7.15625e-015 6.59965e-014
rhumerus 34.044 33.169 -72.1305
rradius 39.6932
rwrist 46.1484
rhand -28.1152 -56.0928
rfingers 7.12502
rthumb -1.49713 -86.0673
lclavicle -7.15625e-015 6.59965e-014
lhumerus 30.1574 -29.2568 71.2905
lradius 39.8382
lwrist -29.0384
lhand -54.5678 -44.2734
lfingers 7.12502
lthumb -26.9667 -16.1778
rfemur -9.38097 20.5219 23.5477
rtibia 13.4564
rfoot -12.6481 -16.175
rtoes -3.28216
lfemur -1.26485 -21.8615 -10.1851
ltibia 4.25404
lfoot -11.0975 33.438
ltoes -4.27558
578
root 0.846887 17.557 8.68083 6.33589 -4.58656 -7.89265
lowerback 2.4759 0.493941 6.65186
upperback -7.53226 1.43696 3.72384
thorax -9.33883 0.373965 0.0970808
lowerneck -13.2536 -2.77211 -0.197347
upperneck 14.5239 -4.6167 5.08518
head 6.74528 -1.80294 1.22
rclavicle 1.21259e-014 -1.66979e-014
rhumerus 35.6871 31.4198 -72.534
rradius 38.0119
rwrist 47.0686
rhand -27.7978 -55.9962
rfingers 7.12502
rthumb -1.19062 -85.9726
lclavicle 1.21259e-014 -1.66979e-014
lhumerus 32.3251 -27.9241 71.6462
lradius 37.8258
lwrist -29.9
lhand -54.8396 -45.2969
lfingers 7.12502
lthumb -27.2268 -17.2419
rfemur -9.99403 20.5026 23.1738
rtibia 13.5427
rfoot -12.5829 -16.3819
rtoes -3.00375
lfemur -2.06536 -21.7162 -9.99882
ltibia 4.37113
lfoot -10.9275 33.0792
ltoes -4.02233
579
root 0.862604 17.568 8.63494 6.76974 -4.31 -7.90155
lowerback 3.04223 0.521738 6.81562
upperback -7.58658 1.55447 3.77473
thorax -9.73402 0.411347 0.0460469
lowerneck -13.2029 -2.86713 -0.0651393
upperneck 14.0059 -4.70128 4.84876
head 6.56324 -1.86881 1.11639
rclavicle -7.30534e-015 -2.0276e-014
rhumerus 36.6906 29.9901 -73.059
rradius 36.7101
rwrist 47.555
rhand -27.2175 -54.9421
rfingers 7.12502
rthumb -0.630113 -84.9209
lclavicle -7.30534e-015 -2.0276e-014
lhumerus 33.8764 -27.5226 71.471
lradius 36.538
lwrist -30.345
lhand -54.8926 -44.7295
lfingers 7.12502
lthumb -27.2774 -16.6824
rfemur -10.7584 20.402 22.8707
rtibia 13.6522
rfoot -12.4419 -16.5354
rtoes -2.91072
lfemur -3.00495 -21.5702 -9.64745
ltibia 4.55885
lfoot -10.6911 32.7483
ltoes -4.2465
580
root 0.875723 17.5781 8.59502 7.23549 -4.08948 -7.88238
lowerback 3.40298 0.549889 7.0448
upperback -7.60645 1.652 3.77915
thorax -9.96681 0.435536 -0.0890169
lowerneck -13.0678 -2.91254 -0.0214236
upperneck 13.487 -4.73604 4.82556
head 6.37349 -1.89881 1.10206
rclavicle 1.7344e-014 -3.73715e-014
rhumerus 37.7036 28.9808 -73.2127
rradius 35.5653
rwrist 47.3837
rhand -27.1479 -54.0978
rfingers 7.12502
rthumb -0.562976 -84.0768
lclavicle 1.7344e-014 -3.73715e-014
lhumerus 35.1137 -27.4598 70.9754
lradius 35.6862
lwrist -30.8639
lhand -54.5855 -43.5052
lfingers 7.12502
lthumb -26.9837 -15.4122
rfemur -11.5464 20.3619 22.5281
rtibia 13.7529
rfoot -12.3121 -16.6636
rtoes -2.51173
lfemur -3.98821 -21.2919 -9.31096
ltibia 4.82851
lfoot -10.4733 32.3366
ltoes -4.7802
581
root 0.887858 17.5852 8.5597 7.70165 -3.98496 -7.72796
lowerback 3.45654 0.563495 7.09205
upperback -7.50295 1.67428 3.79992
thorax -9.8817 0.447518 -0.0978799
lowerneck -13.0743 -2.88316 0.039855
upperneck 13.078 -4.68465 4.82657
head 6.24175 -1.87957 1.09875
rclavicle 6.16232e-015 5.56597e-015
rhumerus 36.3803 24.8242 -78.7595
rradius 33.4962
rwrist 52.8003
rhand -26.9882 -51.0266
rfingers 7.12502
rthumb -0.408735 -81.0059
lclavicle 6.16232e-015 5.56597e-015
lhumerus 36.0663 -27.2897 70.4939
lradius 35.0172
lwrist -31.6229
lhand -54.0758 -42.554
lfingers 7.12502
lthumb -26.4959 -14.3865
rfemur -12.3551 20.3211 22.0365
rtibia 13.9083
rfoot -12.1675 -16.7324
rtoes -1.97006
lfemur -4.942 -20.9114 -9.15379
ltibia 5.13897
lfoot -10.3112 31.8948
ltoes -5.49701
582
root 0.900207 17.5885 8.52651 8.14427 -3.97279 -7.53223
lowerback 3.49584 0.574292 7.18553
upperback -7.43215 1.69102 3.74633
thorax -9.82184 0.448652 -0.210478
lowerneck -13.0266 -2.9205 -0.0721173
upperneck 12.6778 -4.71519 4.98677
head 6.11412 -1.89668 1.16696
rclavicle 7.95139e-016 -9.14409e-015
rhumerus 39.6151 29.3653 -70.9664
rradius 35.6052
rwrist 45.4316
rhand -26.0337 -52.9641
rfingers 7.12502
rthumb 0.513175 -82.9433
lclavicle 7.95139e-016 -9.14409e-015
lhumerus 36.5649 -27.1597 70.1373
lradius 34.4439
lwrist -32.2945
lhand -53.578 -41.5874
lfingers 7.12502
lthumb -26.0193 -13.349
rfemur -13.1601 20.2247 21.517
rtibia 14.1147
rfoot -11.9506 -16.7317
rtoes -1.81525
lfemur -5.8094 -20.487 -9.09192
ltibia 5.42618
lfoot -10.0729 31.5273
ltoes -6.49051
583
root 0.911565 17.5882 8.49713 8.4805 -4.05473 -7.45104
lowerback 3.53817 0.591273 7.41337
upperback -7.31541 1.72375 3.69181
thorax -9.71003 0.449715 -0.400786
lowerneck -12.9583 -2.91178 -0.0847263
upperneck 12.3656 -4.69946 5.10096
head 6.00666 -1.8888 1.20861
rclavicle -4.32357e-015 -1.07344e-014
rhumerus 40.0326 29.3246 -70.6332
rradius 35.2237
rwrist 45.6912
rhand -25.6918 -52.3419
rfingers 7.12502
rthumb 0.843392 -82.3199
lclavicle -4.32357e-015 -1.07344e-014
lhumerus 36.7362 -27.06 69.8129
lradius 34.0414
lwrist -32.4842
lhand -53.2728 -40.5912
lfingers 7.12502
lthumb -25.727 -12.3101
rfemur -13.8031 20.2239 21.1912
rtibia 14.2853
rfoot -11.7819 -16.7059
rtoes -1.81687
lfemur -6.41696 -20.2078 -8.98939
ltibia 5.60101
lfoot -10.0257 31.3681
ltoes -6.57617
